<svg width="135" height="27" viewBox="0 0 135 27" fill="none" xmlns="http://www.w3.org/2000/svg">
<path d="M21.9043 12.9043C21.9043 17.1348 20.6973 20.375 18.2832 22.625C15.8809 24.875 12.4062 26 7.85938 26H0.582031V0.300781H8.65039C12.8457 0.300781 16.1035 1.4082 18.4238 3.62305C20.7441 5.83789 21.9043 8.93164 21.9043 12.9043ZM16.2441 13.0449C16.2441 7.52539 13.8066 4.76562 8.93164 4.76562H6.03125V21.5H8.36914C13.6191 21.5 16.2441 18.6816 16.2441 13.0449ZM34.9473 9.79297C33.8105 9.79297 32.9199 10.1562 32.2754 10.8828C31.6309 11.5977 31.2617 12.6172 31.168 13.9414H38.6914C38.668 12.6172 38.3223 11.5977 37.6543 10.8828C36.9863 10.1562 36.084 9.79297 34.9473 9.79297ZM35.7031 26.3516C32.5391 26.3516 30.0664 25.4785 28.2852 23.7324C26.5039 21.9863 25.6133 19.5137 25.6133 16.3145C25.6133 13.0215 26.4336 10.4785 28.0742 8.68555C29.7266 6.88086 32.0059 5.97852 34.9121 5.97852C37.6895 5.97852 39.8516 6.76953 41.3984 8.35156C42.9453 9.93359 43.7188 12.1191 43.7188 14.9082V17.5098H31.0449C31.1035 19.0332 31.5547 20.2227 32.3984 21.0781C33.2422 21.9336 34.4258 22.3613 35.9492 22.3613C37.1328 22.3613 38.252 22.2383 39.3066 21.9922C40.3613 21.7461 41.4629 21.3535 42.6113 20.8145V24.9629C41.6738 25.4316 40.6719 25.7773 39.6055 26C38.5391 26.2344 37.2383 26.3516 35.7031 26.3516ZM52.7539 26L45.2656 6.34766H50.873L54.6699 17.5449C55.0918 18.9629 55.3555 20.3047 55.4609 21.5703H55.5664C55.625 20.4453 55.8887 19.1035 56.3574 17.5449L60.1367 6.34766H65.7441L58.2559 26H52.7539ZM91.7949 26H84.8691L73.6895 6.55859H73.5312C73.7539 9.99219 73.8652 12.4414 73.8652 13.9062V26H68.9961V0.300781H75.8691L87.0312 19.5488H87.1543C86.9785 16.209 86.8906 13.8477 86.8906 12.4648V0.300781H91.7949V26ZM103.643 26H98.2812V0.300781H113.012V4.76562H103.643V11.3926H112.361V15.8398H103.643V26ZM127.953 26H122.504V4.83594H115.525V0.300781H134.932V4.83594H127.953V26Z" fill="white"/>
</svg>
